<svg width="1200" height="900" viewBox="0 0 1200 900" fill="none" xmlns="http://www.w3.org/2000/svg">
<rect width="1200" height="900" rx="48" fill="#090B10"/>
<rect x="56" y="56" width="1088" height="788" rx="36" fill="url(#paint0_linear)"/>
<circle cx="294" cy="206" r="136" fill="#63C7FF" fill-opacity="0.18"/>
<circle cx="916" cy="676" r="188" fill="#8A6BFF" fill-opacity="0.2"/>
<rect x="318" y="126" width="564" height="648" rx="40" fill="#10161F" stroke="rgba(255,255,255,0.12)"/>
<rect x="376" y="188" width="448" height="146" rx="22" fill="url(#paint1_linear)"/>
<text x="416" y="278" fill="#EAF5FF" font-family="JetBrains Mono, monospace" font-size="54">Y = ax² + bx + c</text>
<g fill="#D8E2EF">
<rect x="376" y="382" width="92" height="72" rx="18"/>
<rect x="496" y="382" width="92" height="72" rx="18"/>
<rect x="616" y="382" width="92" height="72" rx="18"/>
<rect x="736" y="382" width="88" height="72" rx="18"/>
<rect x="376" y="474" width="92" height="72" rx="18"/>
<rect x="496" y="474" width="92" height="72" rx="18"/>
<rect x="616" y="474" width="92" height="72" rx="18"/>
<rect x="736" y="474" width="88" height="72" rx="18"/>
<rect x="376" y="566" width="92" height="72" rx="18"/>
<rect x="496" y="566" width="92" height="72" rx="18"/>
<rect x="616" y="566" width="92" height="72" rx="18"/>
</g>
<rect x="736" y="566" width="88" height="164" rx="18" fill="#9CCEFF"/>
<text x="150" y="792" fill="#F4F7FB" font-family="Inter, Arial, sans-serif" font-size="56" font-weight="700">TI-84 Plus CE</text>
<text x="150" y="838" fill="#A8B4C5" font-family="Inter, Arial, sans-serif" font-size="24">Graphing calculator with charging cable</text>
<defs>
<linearGradient id="paint0_linear" x1="88" y1="84" x2="1092" y2="814" gradientUnits="userSpaceOnUse">
<stop stop-color="#121824"/>
<stop offset="1" stop-color="#070A11"/>
</linearGradient>
<linearGradient id="paint1_linear" x1="376" y1="188" x2="824" y2="334" gradientUnits="userSpaceOnUse">
<stop stop-color="#163B5D"/>
<stop offset="1" stop-color="#206B8C"/>
</linearGradient>
</defs>
</svg>
