<svg width="800" height="800" viewBox="0 0 800 800" fill="none" xmlns="http://www.w3.org/2000/svg">
<rect width="800" height="800" fill="#0C0E14"/>
<circle cx="600" cy="180" r="240" fill="#818cf8" fill-opacity="0.08"/>
<circle cx="200" cy="680" r="180" fill="#a78bfa" fill-opacity="0.06"/>
<!-- Calculator body -->
<rect x="250" y="120" width="300" height="560" rx="24" fill="#1A1D28" stroke="rgba(255,255,255,0.08)" stroke-width="1.5"/>
<!-- Screen -->
<rect x="280" y="160" width="240" height="120" rx="12" fill="#0F1118" stroke="rgba(167,139,250,0.12)" stroke-width="1"/>
<text x="470" y="240" fill="#a78bfa" fill-opacity="0.7" font-family="monospace" font-size="36" text-anchor="end">42.0</text>
<!-- Button grid -->
<g fill="#252836" stroke="rgba(255,255,255,0.05)" stroke-width="1">
  <rect x="284" y="310" width="50" height="44" rx="10"/>
  <rect x="346" y="310" width="50" height="44" rx="10"/>
  <rect x="408" y="310" width="50" height="44" rx="10"/>
  <rect x="470" y="310" width="50" height="44" rx="10"/>
  <rect x="284" y="370" width="50" height="44" rx="10"/>
  <rect x="346" y="370" width="50" height="44" rx="10"/>
  <rect x="408" y="370" width="50" height="44" rx="10"/>
  <rect x="470" y="370" width="50" height="44" rx="10"/>
  <rect x="284" y="430" width="50" height="44" rx="10"/>
  <rect x="346" y="430" width="50" height="44" rx="10"/>
  <rect x="408" y="430" width="50" height="44" rx="10"/>
  <rect x="284" y="490" width="50" height="44" rx="10"/>
  <rect x="346" y="490" width="50" height="44" rx="10"/>
  <rect x="408" y="490" width="50" height="44" rx="10"/>
</g>
<!-- Accent button -->
<rect x="470" y="430" width="50" height="104" rx="10" fill="#a78bfa" fill-opacity="0.25" stroke="rgba(167,139,250,0.2)" stroke-width="1"/>
</svg>
