<svg width="800" height="800" viewBox="0 0 800 800" fill="none" xmlns="http://www.w3.org/2000/svg">
<rect width="800" height="800" fill="#0C0E14"/>
<circle cx="580" cy="220" r="240" fill="#a78bfa" fill-opacity="0.07"/>
<circle cx="220" cy="620" r="200" fill="#6366f1" fill-opacity="0.06"/>
<!-- Chair back -->
<path d="M300 200 Q300 160 340 160 H460 Q500 160 500 200 V420 H300 Z" fill="#1A1D28" stroke="rgba(255,255,255,0.08)" stroke-width="1.5"/>
<rect x="316" y="180" width="168" height="6" rx="3" fill="rgba(255,255,255,0.1)"/>
<!-- Seat -->
<rect x="270" y="420" width="260" height="60" rx="12" fill="#1E2130" stroke="rgba(255,255,255,0.08)" stroke-width="1.5"/>
<!-- Armrests -->
<rect x="250" y="340" width="20" height="100" rx="8" fill="#1E2130" stroke="rgba(255,255,255,0.06)" stroke-width="1"/>
<rect x="530" y="340" width="20" height="100" rx="8" fill="#1E2130" stroke="rgba(255,255,255,0.06)" stroke-width="1"/>
<!-- Stem -->
<rect x="390" y="480" width="20" height="120" rx="4" fill="#1A1D28"/>
<!-- Base -->
<ellipse cx="400" cy="620" rx="120" ry="16" fill="#1A1D28" stroke="rgba(255,255,255,0.06)" stroke-width="1"/>
<!-- Wheels -->
<circle cx="300" cy="630" r="10" fill="#252836"/>
<circle cx="500" cy="630" r="10" fill="#252836"/>
<circle cx="400" cy="640" r="10" fill="#252836"/>
</svg>
