<svg width="800" height="800" viewBox="0 0 800 800" fill="none" xmlns="http://www.w3.org/2000/svg">
<rect width="800" height="800" fill="#0C0E14"/>
<circle cx="600" cy="180" r="250" fill="#a78bfa" fill-opacity="0.07"/>
<circle cx="200" cy="660" r="200" fill="#818cf8" fill-opacity="0.06"/>
<!-- Paper -->
<rect x="220" y="140" width="360" height="500" rx="12" fill="#1A1D28" stroke="rgba(255,255,255,0.08)" stroke-width="1.5"/>
<!-- Corner fold -->
<path d="M520 140 L580 200 L520 200 Z" fill="#252836"/>
<path d="M520 140 L580 200" stroke="rgba(255,255,255,0.06)" stroke-width="1"/>
<!-- Lines of text -->
<rect x="260" y="200" width="200" height="7" rx="3.5" fill="#a78bfa" fill-opacity="0.35"/>
<rect x="260" y="228" width="260" height="5" rx="2.5" fill="rgba(255,255,255,0.12)"/>
<rect x="260" y="248" width="220" height="5" rx="2.5" fill="rgba(255,255,255,0.1)"/>
<rect x="260" y="268" width="240" height="5" rx="2.5" fill="rgba(255,255,255,0.08)"/>
<!-- Diagram block -->
<rect x="260" y="300" width="280" height="140" rx="8" fill="rgba(167,139,250,0.05)" stroke="rgba(167,139,250,0.1)" stroke-width="1"/>
<circle cx="340" cy="370" r="28" fill="rgba(167,139,250,0.1)" stroke="rgba(167,139,250,0.15)" stroke-width="1"/>
<circle cx="460" cy="370" r="28" fill="rgba(99,102,241,0.1)" stroke="rgba(99,102,241,0.15)" stroke-width="1"/>
<line x1="368" y1="370" x2="432" y2="370" stroke="rgba(255,255,255,0.1)" stroke-width="1"/>
<!-- More lines -->
<rect x="260" y="470" width="240" height="5" rx="2.5" fill="rgba(255,255,255,0.1)"/>
<rect x="260" y="490" width="200" height="5" rx="2.5" fill="rgba(255,255,255,0.08)"/>
<rect x="260" y="510" width="260" height="5" rx="2.5" fill="rgba(255,255,255,0.08)"/>
<!-- Highlight -->
<rect x="256" y="546" width="140" height="18" rx="4" fill="#a78bfa" fill-opacity="0.1"/>
<rect x="260" y="550" width="130" height="10" rx="3" fill="#a78bfa" fill-opacity="0.25"/>
</svg>
