<svg width="800" height="800" viewBox="0 0 800 800" fill="none" xmlns="http://www.w3.org/2000/svg">
<rect width="800" height="800" fill="#0C0E14"/>
<circle cx="600" cy="200" r="240" fill="#a78bfa" fill-opacity="0.07"/>
<circle cx="200" cy="650" r="200" fill="#6366f1" fill-opacity="0.06"/>
<!-- Shorts shape -->
<path d="M260 240 H540 Q550 240 550 250 V320 L480 540 Q476 552 464 552 H420 L400 420 L380 552 H336 Q324 552 320 540 L250 320 V250 Q250 240 260 240 Z" fill="#1E2130" stroke="rgba(255,255,255,0.08)" stroke-width="1.5"/>
<!-- Waistband -->
<rect x="252" y="240" width="296" height="30" rx="4" fill="#252836" stroke="rgba(255,255,255,0.06)" stroke-width="1"/>
<!-- Nike swoosh -->
<path d="M340 360 Q380 380 420 350 Q400 390 350 380 Z" fill="#a78bfa" fill-opacity="0.3"/>
<!-- Tag -->
<rect x="430" y="248" width="32" height="14" rx="3" fill="#a78bfa" fill-opacity="0.2"/>
</svg>
