<svg width="800" height="800" viewBox="0 0 800 800" fill="none" xmlns="http://www.w3.org/2000/svg">
<rect width="800" height="800" fill="#0C0E14"/>
<circle cx="600" cy="200" r="300" fill="url(#g1)" fill-opacity="0.12"/>
<circle cx="200" cy="650" r="250" fill="url(#g2)" fill-opacity="0.08"/>
<!-- Book shape -->
<g transform="translate(200, 180)">
  <rect x="0" y="40" width="400" height="480" rx="12" fill="#1A1D28" stroke="rgba(255,255,255,0.08)" stroke-width="1.5"/>
  <rect x="0" y="40" width="20" height="480" rx="4" fill="#a78bfa" fill-opacity="0.6"/>
  <rect x="40" y="80" width="320" height="8" rx="4" fill="rgba(255,255,255,0.5)"/>
  <rect x="40" y="108" width="240" height="6" rx="3" fill="rgba(255,255,255,0.2)"/>
  <rect x="40" y="130" width="280" height="6" rx="3" fill="rgba(255,255,255,0.2)"/>
  <rect x="40" y="180" width="320" height="200" rx="12" fill="url(#g3)" fill-opacity="0.15"/>
  <rect x="40" y="420" width="180" height="6" rx="3" fill="rgba(255,255,255,0.15)"/>
  <rect x="40" y="440" width="260" height="6" rx="3" fill="rgba(255,255,255,0.1)"/>
  <rect x="40" y="460" width="200" height="6" rx="3" fill="rgba(255,255,255,0.1)"/>
</g>
<defs>
  <radialGradient id="g1"><stop stop-color="#a78bfa"/><stop offset="1" stop-color="transparent"/></radialGradient>
  <radialGradient id="g2"><stop stop-color="#6366f1"/><stop offset="1" stop-color="transparent"/></radialGradient>
  <linearGradient id="g3" x1="0" y1="0" x2="1" y2="1"><stop stop-color="#a78bfa"/><stop offset="1" stop-color="#6366f1"/></linearGradient>
</defs>
</svg>
