<svg xmlns="http://www.w3.org/2000/svg" width="434" height="434" viewBox="-19 -17 434 434">
<g transform="translate(0,400) scale(0.1,-0.1)" fill="#ffffff" stroke="none">
<path d="M3580 2955 l0 -235 -46 0 c-132 0 -312 -74 -419 -172 -150 -137 -227
-316 -228 -529 -1 -333 204 -605 518 -684 53 -14 115 -25 136 -25 l39 0 0
-250 0 -250 -57 0 c-68 0 -213 23 -292 45 -190 54 -356 147 -500 280 l-59 55
43 -102 c23 -57 54 -129 69 -162 14 -32 26 -62 26 -67 0 -5 -121 -8 -281 -7
l-282 3 -79 205 c-44 113 -84 219 -89 237 l-9 31 -468 2 c-258 0 -476 -2 -485
-6 -9 -3 -17 -10 -17 -15 0 -5 -24 -70 -54 -146 -30 -76 -69 -177 -88 -225
l-33 -88 -277 0 -276 0 94 223 c52 122 101 232 109 243 13 21 42 34 265 126
213 89 629 237 835 298 195 58 389 113 523 146 l152 39 0 53 c0 84 20 240 40
322 55 215 158 391 321 550 212 208 509 334 797 339 l72 1 0 -235z m-1723 150
c40 -96 362 -854 393 -925 16 -35 27 -67 25 -71 -3 -3 -46 -12 -97 -18 -51 -7
-146 -21 -212 -32 -65 -10 -131 -19 -146 -19 -32 0 -24 -17 -150 315 -40 105
-76 193 -79 197 -4 4 -55 -119 -115 -275 -59 -155 -114 -292 -122 -304 -9 -15
-28 -24 -61 -29 -27 -3 -111 -20 -188 -36 -77 -16 -166 -33 -197 -39 -32 -5
-69 -14 -83 -19 -14 -5 -25 -6 -25 -1 0 8 53 132 370 876 87 204 165 387 173
408 l16 37 236 -2 237 -3 25 -60z"/>
</g>
</svg>
